<svg width="20" height="22" viewBox="0 0 20 22" fill="none" xmlns="http://www.w3.org/2000/svg">
<path d="M17.5833 2.25001H16.5V1.16668C16.5 0.570843 16.0125 0.0833435 15.4167 0.0833435C14.8208 0.0833435 14.3333 0.570843 14.3333 1.16668V2.25001H5.66667V1.16668C5.66667 0.570843 5.17917 0.0833435 4.58333 0.0833435C3.9875 0.0833435 3.5 0.570843 3.5 1.16668V2.25001H2.41667C1.21417 2.25001 0.260833 3.22501 0.260833 4.41668L0.25 19.5833C0.25 20.158 0.478273 20.7091 0.884602 21.1154C1.29093 21.5217 1.84203 21.75 2.41667 21.75H17.5833C18.775 21.75 19.75 20.775 19.75 19.5833V4.41668C19.75 3.22501 18.775 2.25001 17.5833 2.25001ZM16.5 19.5833H3.5C2.90417 19.5833 2.41667 19.0958 2.41667 18.5V7.66668H17.5833V18.5C17.5833 19.0958 17.0958 19.5833 16.5 19.5833ZM5.66667 9.83334H8.91667C9.5125 9.83334 10 10.3208 10 10.9167V14.1667C10 14.7625 9.5125 15.25 8.91667 15.25H5.66667C5.07083 15.25 4.58333 14.7625 4.58333 14.1667V10.9167C4.58333 10.3208 5.07083 9.83334 5.66667 9.83334Z" fill="black"/>
</svg>
