<svg width="20" height="22" viewBox="0 0 20 22" fill="none" xmlns="http://www.w3.org/2000/svg">
<path d="M3.5 0.0833435H5.66667V2.25001H14.3333V0.0833435H16.5V2.25001H17.5833C18.158 2.25001 18.7091 2.47828 19.1154 2.88461C19.5217 3.29094 19.75 3.84204 19.75 4.41668V19.5833C19.75 20.7858 18.7858 21.75 17.5833 21.75H2.41667C1.84203 21.75 1.29093 21.5217 0.884602 21.1154C0.478273 20.7091 0.25 20.158 0.25 19.5833V4.41668C0.25 3.21418 1.21417 2.25001 2.41667 2.25001H3.5V0.0833435ZM2.41667 7.66668V19.5833H17.5833V7.66668H2.41667ZM4.58333 9.83334H15.4167V12H4.58333V9.83334Z" fill="black"/>
</svg>