<svg width="24" height="24" viewBox="0 0 24 21" fill="none" xmlns="http://www.w3.org/2000/svg">
<g clip-path="url(#clip0)">
<path fill-rule="evenodd" clip-rule="evenodd" d="M22.233 1.28117C22.3738 1.14054 22.453 0.949726 22.4532 0.750703C22.4533 0.55168 22.3744 0.360753 22.2337 0.219923C22.0931 0.0790932 21.9023 -0.000103301 21.7033 -0.000243953C21.5043 -0.000384605 21.3133 0.0785421 21.1725 0.219173L18.0075 3.38417C16.335 2.22467 14.3475 1.38917 12.09 1.38917C4.5 1.38917 0 10.3892 0 10.3892C0 10.3892 1.743 13.8737 4.887 16.5062L1.791 19.6037C1.71937 19.6729 1.66223 19.7556 1.62292 19.8471C1.58362 19.9386 1.56293 20.037 1.56206 20.1366C1.5612 20.2362 1.58017 20.335 1.61788 20.4271C1.65559 20.5193 1.71128 20.603 1.7817 20.6735C1.85212 20.7439 1.93586 20.7996 2.02803 20.8373C2.12021 20.875 2.21897 20.894 2.31855 20.8931C2.41814 20.8922 2.51655 20.8716 2.60805 20.8322C2.69956 20.7929 2.78232 20.7358 2.8515 20.6642L22.233 1.28117ZM7.29 14.1047L9.438 11.9552C9.15028 11.483 8.99869 10.9406 9 10.3877C9 8.72267 10.335 7.38767 12 7.38767C12.576 7.38767 13.1115 7.54667 13.5675 7.82567L15.717 5.67617C14.6592 4.83906 13.349 4.38489 12 4.38767C8.7 4.38767 6 7.08767 6 10.3877C6 11.7947 6.4815 13.0847 7.2885 14.1047H7.29ZM17.7975 8.83367L20.787 5.84567C22.0433 7.21967 23.1227 8.74554 24 10.3877C24 10.3877 19.5 19.3877 12.09 19.3877C10.7146 19.3827 9.35528 19.0915 8.0985 18.5327L10.446 16.1837C10.941 16.3172 11.463 16.3877 12 16.3877C15.33 16.3877 18 13.7177 18 10.3877C18 9.85067 17.9295 9.33017 17.796 8.83367H17.7975ZM14.007 12.6227L14.235 12.3962C14.1631 12.4757 14.087 12.5513 14.007 12.6227Z" fill="#BDBDBD"/>
</g>
<defs>
<clipPath id="clip0">
<rect width="24" height="20.9989" fill="white"/>
</clipPath>
</defs>
</svg>
