<svg width="32" height="32" viewBox="0 0 35 35" fill="none" xmlns="http://www.w3.org/2000/svg">
<path d="M19.6875 2.1875H8.75C7.58968 2.1875 6.47688 2.64844 5.65641 3.46891C4.83594 4.28938 4.375 5.40218 4.375 6.5625V28.4375C4.375 29.5978 4.83594 30.7106 5.65641 31.5311C6.47688 32.3516 7.58968 32.8125 8.75 32.8125H19.6875V30.625H8.75C8.16984 30.625 7.61344 30.3945 7.2032 29.9843C6.79297 29.5741 6.5625 29.0177 6.5625 28.4375V6.5625C6.5625 5.98234 6.79297 5.42594 7.2032 5.0157C7.61344 4.60547 8.16984 4.375 8.75 4.375H19.6875V9.84375C19.6875 10.714 20.0332 11.5486 20.6486 12.1639C21.2639 12.7793 22.0985 13.125 22.9688 13.125H28.4375V17.5H30.625V13.125L19.6875 2.1875Z" fill="black"/>
<path fill-rule="evenodd" clip-rule="evenodd" d="M29.5312 21.875C29.8213 21.875 30.0995 21.9902 30.3046 22.1954C30.5098 22.4005 30.625 22.6787 30.625 22.9688V27.3438C30.625 27.6338 30.5098 27.912 30.3046 28.1171C30.0995 28.3223 29.8213 28.4375 29.5312 28.4375H25.1562C24.8662 28.4375 24.588 28.3223 24.3829 28.1171C24.1777 27.912 24.0625 27.6338 24.0625 27.3438C24.0625 27.0537 24.1777 26.7755 24.3829 26.5704C24.588 26.3652 24.8662 26.25 25.1562 26.25H28.4375V22.9688C28.4375 22.6787 28.5527 22.4005 28.7579 22.1954C28.963 21.9902 29.2412 21.875 29.5312 21.875Z" fill="black"/>
<path fill-rule="evenodd" clip-rule="evenodd" d="M28.4375 27.3438C28.4375 27.0537 28.5527 26.7755 28.7579 26.5704C28.963 26.3652 29.2412 26.25 29.5312 26.25H33.9062C34.1963 26.25 34.4745 26.3652 34.6796 26.5704C34.8848 26.7755 35 27.0537 35 27.3438C35 27.6338 34.8848 27.912 34.6796 28.1171C34.4745 28.3223 34.1963 28.4375 33.9062 28.4375H30.625V31.7188C30.625 32.0088 30.5098 32.287 30.3046 32.4921C30.0995 32.6973 29.8213 32.8125 29.5312 32.8125C29.2412 32.8125 28.963 32.6973 28.7579 32.4921C28.5527 32.287 28.4375 32.0088 28.4375 31.7188V27.3438Z" fill="black"/>
</svg>
