<svg width="32" height="32" viewBox="0 0 32 32" fill="none" xmlns="http://www.w3.org/2000/svg">
<path d="M5.46757 23.75C5.54257 23.4762 5.37819 23.0956 5.22132 22.8213C5.17268 22.7393 5.11969 22.66 5.06257 22.5837C3.71711 20.5433 2.99998 18.1529 3.00007 15.7087C2.97757 8.69312 8.79507 3 15.9888 3C22.2626 3 27.5001 7.34625 28.7232 13.1156C28.9068 13.971 28.9996 14.8433 29.0001 15.7181C29.0001 22.7438 23.4069 28.5263 16.2132 28.5263C15.0688 28.5263 13.5257 28.2387 12.6838 28.0031C11.8419 27.7675 11.0013 27.455 10.7844 27.3713C10.5624 27.286 10.3266 27.2421 10.0888 27.2419C9.82947 27.241 9.57263 27.2926 9.33382 27.3937L5.09382 28.9237C5.00116 28.9638 4.90295 28.9895 4.80257 29C4.72316 28.9998 4.64459 28.9838 4.5714 28.953C4.49821 28.9222 4.43186 28.8772 4.37618 28.8206C4.3205 28.7639 4.27659 28.6968 4.24701 28.6232C4.21742 28.5495 4.20274 28.4706 4.20382 28.3913C4.20903 28.3216 4.2216 28.2527 4.24132 28.1856L5.46757 23.75Z" stroke="black" stroke-width="1.5" stroke-miterlimit="10" stroke-linecap="round"/>
<path d="M10 18C11.1046 18 12 17.1046 12 16C12 14.8954 11.1046 14 10 14C8.89543 14 8 14.8954 8 16C8 17.1046 8.89543 18 10 18Z" fill="black"/>
<path d="M16 18C17.1046 18 18 17.1046 18 16C18 14.8954 17.1046 14 16 14C14.8954 14 14 14.8954 14 16C14 17.1046 14.8954 18 16 18Z" fill="black"/>
<path d="M22 18C23.1046 18 24 17.1046 24 16C24 14.8954 23.1046 14 22 14C20.8954 14 20 14.8954 20 16C20 17.1046 20.8954 18 22 18Z" fill="black"/>
</svg>
