<svg width="32" height="32" viewBox="0 0 32 32" fill="none" xmlns="http://www.w3.org/2000/svg">
<path d="M10.6666 4H21.3333C22.3942 4 23.4116 4.42143 24.1617 5.17157C24.9119 5.92172 25.3333 6.93913 25.3333 8V28L16 24L6.66663 28V8C6.66663 6.93913 7.08805 5.92172 7.8382 5.17157C8.58834 4.42143 9.60576 4 10.6666 4ZM10.6666 5.33333C9.95938 5.33333 9.2811 5.61428 8.78101 6.11438C8.28091 6.61448 7.99996 7.29276 7.99996 8V25.9867L16 22.5893L24 25.9853V8C24 7.29276 23.719 6.61448 23.2189 6.11438C22.7188 5.61428 22.0405 5.33333 21.3333 5.33333H10.6666Z" fill="black"/>
</svg>
