<svg width="32" height="32" viewBox="0 0 32 32" fill="none" xmlns="http://www.w3.org/2000/svg">
<path d="M15.3333 4C18.6927 4 21.9145 5.33452 24.29 7.70998C26.6654 10.0854 28 13.3073 28 16.6667C28 20.0261 26.6654 23.2479 24.29 25.6234C21.9145 27.9988 18.6927 29.3333 15.3333 29.3333C11.9739 29.3333 8.75207 27.9988 6.37661 25.6234C4.00115 23.2479 2.66663 20.0261 2.66663 16.6667C2.66663 13.3073 4.00115 10.0854 6.37661 7.70998C8.75207 5.33452 11.9739 4 15.3333 4ZM15.3333 5.33333C12.3275 5.33333 9.44483 6.52738 7.31942 8.65279C5.194 10.7782 3.99996 13.6609 3.99996 16.6667C3.99996 19.6725 5.194 22.5551 7.31942 24.6805C9.44483 26.806 12.3275 28 15.3333 28C18.3391 28 21.2218 26.806 23.3472 24.6805C25.4726 22.5551 26.6666 19.6725 26.6666 16.6667C26.6666 13.6609 25.4726 10.7782 23.3472 8.65279C21.2218 6.52738 18.3391 5.33333 15.3333 5.33333ZM14.6666 9.33333H16V16.564L22.2613 20.1787L21.5946 21.3333L14.6666 17.3333V9.33333Z" fill="black"/>
</svg>
