<svg width="32" height="32" viewBox="0 0 32 32" fill="none" xmlns="http://www.w3.org/2000/svg">
<path d="M3.32004 12.4962L28.32 3.03434C28.4102 2.99984 28.5085 2.9922 28.6029 3.01233C28.6973 3.03247 28.7839 3.07951 28.8522 3.14779C28.9205 3.21607 28.9675 3.30265 28.9877 3.39709C29.0078 3.49153 29.0002 3.58977 28.9657 3.67996L19.5038 28.68C19.4662 28.7749 19.4004 28.856 19.3152 28.9125C19.2301 28.9689 19.1297 28.9979 19.0276 28.9956C18.9255 28.9933 18.8266 28.9597 18.7441 28.8995C18.6616 28.8393 18.5996 28.7553 18.5663 28.6587L14.3538 18.2781C14.3047 18.131 14.222 17.9973 14.1124 17.8876C14.0027 17.778 13.869 17.6953 13.7219 17.6462L3.34129 13.4375C3.2435 13.4049 3.15816 13.343 3.09693 13.2601C3.03571 13.1772 3.0016 13.0774 2.99927 12.9743C2.99695 12.8713 3.02652 12.77 3.08394 12.6845C3.14136 12.5989 3.22382 12.5331 3.32004 12.4962V12.4962Z" stroke="black" stroke-width="1.5" stroke-linecap="round" stroke-linejoin="round"/>
<path d="M28.75 3.25L14.1875 17.8125" stroke="black" stroke-width="1.5" stroke-linecap="round" stroke-linejoin="round"/>
</svg>
