<svg width="30" height="32" viewBox="0 0 30 32" fill="none" xmlns="http://www.w3.org/2000/svg">
<path d="M22.0313 9C21.8016 12.3044 19.4532 15 16.875 15C14.2969 15 11.9444 12.305 11.7188 9C11.4844 5.5625 13.7696 3 16.875 3C19.9805 3 22.2657 5.625 22.0313 9Z" stroke="black" stroke-width="1.5" stroke-linecap="round" stroke-linejoin="round"/>
<path d="M16.875 19C11.7774 19 6.60355 22 5.64613 27.6625C5.52894 28.345 5.89281 29 6.56312 29H27.1875C27.8578 29 28.22 28.345 28.1045 27.6625C27.1465 22 21.9727 19 16.875 19Z" stroke="black" stroke-width="1.5" stroke-miterlimit="10"/>
<path d="M5.15625 11V18" stroke="black" stroke-width="1.5" stroke-linecap="round" stroke-linejoin="round"/>
<path d="M8.4375 14.5H1.875" stroke="black" stroke-width="1.5" stroke-linecap="round" stroke-linejoin="round"/>
</svg>
